/vscmnt/brussel_pixiu_data/_data_brussel/112/vsc11236/PredSimResults/SUBJ07mtu3D/worker4.mot
version=1
nRows=11
nColumns=50
inDegrees=yes
endheader
                time	         pelvis_tilt	         pelvis_list	     pelvis_rotation	           pelvis_tx	           pelvis_ty	           pelvis_tz	       hip_flexion_r	     hip_adduction_r	      hip_rotation_r	        knee_angle_r	       ankle_angle_r	         mtp_angle_r	       hip_flexion_l	     hip_adduction_l	      hip_rotation_l	        knee_angle_l	       ankle_angle_l	         mtp_angle_l	    lumbar_extension	      lumbar_bending	     lumbar_rotation	 ercspn_r/activation	 intobl_r/activation	 extobl_r/activation	    abd_r/activation	    add_r/activation	hamstrings_r/activation	bifemsh_r/activation	glut_max_r/activation	iliopsoas_r/activation	rect_fem_r/activation	  vasti_r/activation	gastroc_r/activation	 soleus_r/activation	tib_ant_r/activation	 ercspn_l/activation	 intobl_l/activation	 extobl_l/activation	    abd_l/activation	    add_l/activation	hamstrings_l/activation	bifemsh_l/activation	glut_max_l/activation	iliopsoas_l/activation	rect_fem_l/activation	  vasti_l/activation	gastroc_l/activation	 soleus_l/activation	tib_ant_l/activation	
          1.08898988	         -4.09355759	          0.62610835	          7.70153257	          1.32856766	          0.85063495	         -0.01254976	         30.33600847	         -2.54478143	         -3.68933828	         -7.74333663	          4.03329677	          0.26825599	        -14.19259387	          1.34503058	          3.76872290	         -8.78598232	          8.20473740	         26.96140455	        -10.51318527	         -2.35002925	         -1.28441648	          0.12515361	          0.14052962	          0.01000007	          0.02260597	          0.12949975	          0.05083108	          0.07676553	          0.08323031	          0.01948639	          0.01181503	          0.01000004	          0.01000003	          0.01000000	          0.37545825	          0.13354617	          0.01000001	          0.01000001	          0.03719483	          0.01000008	          0.01557622	          0.13417302	          0.01681134	          0.11061388	          0.01181506	          0.01000034	          0.12213530	          0.26924815	          0.01948642	
          1.09987978	         -4.09204400	          0.67627062	          7.71583969	          1.34411137	          0.84918902	         -0.01238544	         30.01916188	         -2.34450565	         -3.27490555	         -9.02980385	          3.74232007	          0.25077564	        -14.67251249	          1.29662155	          3.45121377	         -9.79584741	          7.30194193	         28.52182875	        -10.39288208	         -1.96586678	         -1.52259569	          0.10592790	          0.11954379	          0.01000002	          0.01913355	          0.10960642	          0.05311251	          0.09244604	          0.13418396	          0.01649296	          0.01000009	          0.01000003	          0.01649317	          0.01181515	          0.39905805	          0.14830051	          0.01000000	          0.01000013	          0.03148107	          0.02127663	          0.01318403	          0.11356178	          0.01422884	          0.09362173	          0.01000013	          0.01000002	          0.10337323	          0.25150552	          0.01649297	
          1.11076968	         -4.08645955	          0.72172599	          7.68328412	          1.35978011	          0.84794785	         -0.01214015	         29.64296823	         -2.19383993	         -2.88706904	        -10.26296209	          3.39006272	          0.24719711	        -15.00374797	          1.25554992	          3.09533699	        -11.08182708	          6.29576839	         30.03254915	        -10.26615110	         -1.57564285	         -1.75196443	          0.14063668	          0.10117983	          0.01000003	          0.10465618	          0.12664513	          0.05017038	          0.08918804	          0.13468934	          0.01395937	          0.01000003	          0.01000000	          0.01395955	          0.01000014	          0.45103527	          0.15924690	          0.01000000	          0.01000004	          0.02664504	          0.01800820	          0.01115948	          0.09611677	          0.01204306	          0.07923986	          0.01000069	          0.01000009	          0.08749334	          0.23015970	          0.01395937	
          1.12165958	         -4.07837748	          0.78144660	          7.60766772	          1.37539053	          0.84707171	         -0.01179913	         29.28894794	         -2.06089366	         -2.57591730	        -11.50566260	          2.97426502	          0.22869598	        -15.10502189	          1.24195822	          2.71290528	        -12.75887362	          5.16094698	         31.44478122	        -10.15370104	         -1.20170070	         -1.97113618	          0.14709153	          0.08563689	          0.01000002	          0.14855160	          0.15252705	          0.04444073	          0.07548728	          0.15627307	          0.01181498	          0.01000005	          0.01000006	          0.01181514	          0.01000002	          0.47099643	          0.19332185	          0.01000000	          0.01000002	          0.02255191	          0.02101354	          0.01383159	          0.08135161	          0.01019307	          0.06706729	          0.01000038	          0.01000038	          0.07405287	          0.19742606	          0.01181498	
          1.13254948	         -4.06784903	          0.84766357	          7.49547394	          1.39081875	          0.84667641	         -0.01136661	         29.00985609	         -1.93103124	         -2.31619287	        -12.89438569	          2.75637090	          0.21107270	        -14.90527706	          1.24699916	          2.30806415	        -14.93205597	          3.91646288	         32.62552488	        -10.06302938	         -0.83756931	         -2.18001818	          0.15640483	          0.07248160	          0.01000002	          0.18358995	          0.17567006	          0.04361225	          0.06389119	          0.17499819	          0.01000004	          0.01000005	          0.02974009	          0.01000017	          0.01000003	          0.47556739	          0.22440347	          0.01000000	          0.01000002	          0.01908755	          0.04622283	          0.01181053	          0.06885464	          0.01000002	          0.05676463	          0.01000015	          0.01000003	          0.06267709	          0.16709805	          0.01000000	
          1.14343938	         -4.05606375	          0.91993258	          7.34798082	          1.40598631	          0.84686682	         -0.01085768	         28.76790075	         -1.80508545	         -2.10655179	        -14.34480527	          2.73775001	          0.19337260	        -14.34048906	          1.27058392	          1.86886210	        -17.69306333	          2.57524484	         33.37752189	         -9.99548299	         -0.48477753	         -2.37591153	          0.15991508	          0.06134720	          0.01000001	          0.20391889	          0.19474775	          0.04393225	          0.05407646	          0.18201584	          0.01000004	          0.01000005	          0.05687190	          0.01000009	          0.01000004	          0.46098359	          0.24546671	          0.01000000	          0.01000002	          0.01615538	          0.07459945	          0.01000528	          0.05827741	          0.01000001	          0.04804463	          0.01000009	          0.01000001	          0.05304882	          0.14142894	          0.01000000	
          1.15432928	         -4.04446553	          0.99820956	          7.16577201	          1.42086747	          0.84768468	         -0.01029008	         28.48350332	         -1.68031095	         -1.93363527	        -15.70354711	          2.89842748	          0.17944805	        -13.36867330	          1.30788656	          1.39230028	        -21.09031812	          1.11130458	         33.52084629	         -9.94691456	         -0.14463490	         -2.55536383	          0.15606017	          0.05192322	          0.01000001	          0.20905302	          0.20388215	          0.04532552	          0.04576946	          0.18085121	          0.01000004	          0.01000004	          0.07648227	          0.01000012	          0.01000004	          0.43579258	          0.25168027	          0.01000000	          0.01000003	          0.01367364	          0.09611086	          0.01000460	          0.04932504	          0.01000000	          0.04066417	          0.01000006	          0.01000000	          0.04489962	          0.11970304	          0.01000000	
          1.16521917	         -4.03441566	          1.07876401	          6.94988645	          1.43546390	          0.84908299	         -0.00967388	         28.09296384	         -1.54968856	         -1.77530813	        -16.84598518	          3.19778663	          0.17464312	        -11.98200667	          1.34659533	          0.90014692	        -25.07982110	         -0.62663899	         33.05351332	         -9.91220836	          0.18490882	         -2.71543966	          0.13208677	          0.04394693	          0.01000001	          0.20463638	          0.20435424	          0.05235027	          0.03873857	          0.16533984	          0.01000004	          0.01000006	          0.10195524	          0.01000006	          0.01000002	          0.40327696	          0.25939317	          0.01000000	          0.01000002	          0.01157314	          0.11068186	          0.01000084	          0.04174790	          0.01000000	          0.03441747	          0.01000004	          0.01000000	          0.03800227	          0.10131461	          0.01000002	
          1.17610907	         -4.02737571	          1.15847670	          6.70032119	          1.44976339	          0.85096709	         -0.00900482	         27.55414151	         -1.40534638	         -1.59857578	        -17.68367538	          3.59851828	          0.19142896	        -10.20383887	          1.37930053	          0.43011454	        -29.56230618	         -2.65046715	         31.76520434	         -9.89167195	          0.50210704	         -2.85557565	          0.11179600	          0.03719593	          0.01000002	          0.20861034	          0.19175145	          0.05977692	          0.03278775	          0.13994086	          0.01000003	          0.01000003	          0.12527086	          0.01000009	          0.01000002	          0.36662947	          0.25070940	          0.01000001	          0.01000003	          0.01000000	          0.12305008	          0.01652267	          0.03533474	          0.01000002	          0.02913037	          0.01000004	          0.01000000	          0.03216448	          0.08575096	          0.06197268	
          1.18699897	         -4.02481611	          1.22856826	          6.42046072	          1.46371467	          0.85318938	         -0.00830687	         26.86417653	         -1.23998615	         -1.37761117	        -18.19668026	          4.06135834	          0.24841245	         -8.09605883	          1.40996276	          0.03387833	        -34.41176682	         -4.64118269	         29.18816923	         -9.89103842	          0.81590657	         -2.97513823	          0.09462223	          0.03148200	          0.01000002	          0.22052641	          0.16298022	          0.06792981	          0.02775106	          0.11844358	          0.01000002	          0.01000002	          0.14009237	          0.01000010	          0.01000002	          0.33193121	          0.26521222	          0.02744381	          0.01000007	          0.01153450	          0.10414750	          0.01398501	          0.02990675	          0.01649295	          0.02465545	          0.01000056	          0.01000003	          0.02722347	          0.07257815	          0.20616881	
          1.19788887	         -4.02690412	          1.28379231	          6.11347016	          1.47729479	          0.85557518	         -0.00760755	         26.05295514	         -1.05536031	         -1.11662296	        -18.42853105	          4.53355676	          0.34552622	         -5.79810589	          1.46736398	         -0.26896919	        -39.37188210	         -5.84051763	         25.55314003	         -9.91209188	          1.12800110	         -3.07159848	          0.08008664	          0.02664583	          0.01000003	          0.21412817	          0.13818684	          0.06941717	          0.02348807	          0.10024866	          0.01000001	          0.01000001	          0.14718379	          0.01000008	          0.01000001	          0.30215321	          0.26236323	          0.02322801	          0.01181503	          0.01253864	          0.08814867	          0.01183696	          0.02531264	          0.01395936	          0.02086797	          0.01000023	          0.01000000	          0.02304152	          0.06142891	          0.21213781	
